# xmcd
#
# Track frame offsets: 
#        150
#        13679
#        28603
#        41787
#        55119
#        69039
#        82498
#        97705
#        109488
#        123523
#        140915
#        155298
#        169845
#        180396
#        194935
#
# Disc length: 2855 seconds
#
# Revision: 1
# Processed by: cddbd v1.5.2PL0 Copyright (c) Steve Scherf et al.
# Submitted via: ExactAudioCopy v0.95b4
#
DISCID=d30b250f
DTITLE=John Hammond - Long As I Have You
DYEAR=1900
DGENRE=Blues
TTITLE0=Don't Start Me Talkin'
TTITLE1=As Long As I Have You
TTITLE2=I Feel So Sorry
TTITLE3=Stranded
TTITLE4=Lookin' For Trouble
TTITLE5=I Got Lucky
TTITLE6=Sad To Be Alone
TTITLE7=Goin' Away Baby
TTITLE8=So Many Roads, So Many Trains
TTITLE9=I'm Gonna Find My Baby
TTITLE10=Crying At Daylight
TTITLE11=Everything's Gonna Be Alright
TTITLE12=Untrue Blues
TTITLE13=Tell Me Mama
TTITLE14=Homeless Blues
EXTD=
EXTT0=
EXTT1=
EXTT2=
EXTT3=
EXTT4=
EXTT5=
EXTT6=
EXTT7=
EXTT8=
EXTT9=
EXTT10=
EXTT11=
EXTT12=
EXTT13=
EXTT14=
PLAYORDER=
